<svg width="18" height="18" viewBox="0 0 18 18" fill="none" xmlns="http://www.w3.org/2000/svg">
<circle cx="9" cy="9" r="2.5" stroke="black"/>
<path d="M9.79683 1.87842L10.4823 2.78241C10.919 3.35831 11.6324 3.65381 12.3484 3.55537L13.4723 3.40084C14.1284 3.31063 14.6894 3.87162 14.5992 4.52773L14.4446 5.65163C14.3462 6.36763 14.6417 7.08104 15.2176 7.51772L16.1216 8.20317C16.6493 8.60332 16.6493 9.39668 16.1216 9.79683L15.2176 10.4823C14.6417 10.919 14.3462 11.6324 14.4446 12.3484L14.5992 13.4723C14.6894 14.1284 14.1284 14.6894 13.4723 14.5992L12.3484 14.4446C11.6324 14.3462 10.919 14.6417 10.4823 15.2176L9.79683 16.1216C9.39668 16.6493 8.60332 16.6493 8.20317 16.1216L7.51772 15.2176C7.08104 14.6417 6.36763 14.3462 5.65163 14.4446L4.52773 14.5992C3.87161 14.6894 3.31063 14.1284 3.40084 13.4723L3.55537 12.3484C3.65381 11.6324 3.35831 10.919 2.78241 10.4823L1.87842 9.79683C1.35069 9.39668 1.35069 8.60332 1.87842 8.20317L2.78241 7.51772C3.35831 7.08104 3.65381 6.36763 3.55537 5.65163L3.40084 4.52773C3.31063 3.87162 3.87162 3.31063 4.52773 3.40084L5.65163 3.55537C6.36763 3.65381 7.08104 3.35831 7.51772 2.78241L8.20317 1.87842C8.60332 1.35069 9.39668 1.35069 9.79683 1.87842Z" stroke="black" stroke-linejoin="round"/>
</svg>
